<svg width="354" height="92" viewBox="0 0 354 92" fill="none" xmlns="http://www.w3.org/2000/svg">
<path d="M144.24 69.72C141.8 69.72 139.56 69.18 137.52 68.1C135.52 67.02 133.92 65.52 132.72 63.6C131.56 61.68 130.98 59.4 130.98 56.76V38.46C130.98 37.82 130.82 37.24 130.5 36.72C130.18 36.2 129.76 35.78 129.24 35.46C128.72 35.14 128.14 34.98 127.5 34.98C126.86 34.98 126.28 35.14 125.76 35.46C125.24 35.78 124.82 36.2 124.5 36.72C124.22 37.24 124.08 37.82 124.08 38.46V69H114.24V39.18C114.24 36.66 114.8 34.44 115.92 32.52C117.08 30.6 118.66 29.08 120.66 27.96C122.7 26.84 124.98 26.28 127.5 26.28C130.06 26.28 132.34 26.84 134.34 27.96C136.34 29.08 137.92 30.6 139.08 32.52C140.24 34.44 140.82 36.66 140.82 39.18V57.48C140.82 58.16 140.98 58.76 141.3 59.28C141.62 59.8 142.02 60.22 142.5 60.54C143.02 60.82 143.58 60.96 144.18 60.96C144.82 60.96 145.4 60.82 145.92 60.54C146.48 60.22 146.92 59.8 147.24 59.28C147.56 58.76 147.72 58.16 147.72 57.48V39.18C147.72 36.66 148.3 34.44 149.46 32.52C150.62 30.6 152.2 29.08 154.2 27.96C156.24 26.84 158.5 26.28 160.98 26.28C163.54 26.28 165.8 26.84 167.76 27.96C169.76 29.08 171.34 30.6 172.5 32.52C173.66 34.44 174.24 36.66 174.24 39.18V69H164.4V38.4C164.4 37.76 164.24 37.2 163.92 36.72C163.64 36.2 163.24 35.78 162.72 35.46C162.2 35.14 161.62 34.98 160.98 34.98C160.38 34.98 159.8 35.14 159.24 35.46C158.72 35.78 158.3 36.2 157.98 36.72C157.66 37.2 157.5 37.76 157.5 38.4V56.76C157.5 59.4 156.9 61.68 155.7 63.6C154.5 65.52 152.9 67.02 150.9 68.1C148.9 69.18 146.68 69.72 144.24 69.72ZM190.944 69.72C188.224 69.72 185.824 69.02 183.744 67.62C181.664 66.22 180.044 64.34 178.884 61.98C177.724 59.58 177.144 56.88 177.144 53.88C177.144 50.76 177.824 47.98 179.184 45.54C180.544 43.06 182.464 41.1 184.944 39.66C187.464 38.22 190.424 37.5 193.824 37.5C197.264 37.5 200.184 38.22 202.584 39.66C205.024 41.06 206.884 43 208.164 45.48C209.484 47.92 210.144 50.66 210.144 53.7V69H201.024V64.08H200.784C200.224 65.16 199.504 66.14 198.624 67.02C197.744 67.86 196.664 68.52 195.384 69C194.144 69.48 192.664 69.72 190.944 69.72ZM193.704 61.68C195.104 61.68 196.324 61.34 197.364 60.66C198.444 59.94 199.264 58.96 199.824 57.72C200.384 56.48 200.664 55.1 200.664 53.58C200.664 52.1 200.384 50.76 199.824 49.56C199.264 48.36 198.444 47.42 197.364 46.74C196.324 46.02 195.104 45.66 193.704 45.66C192.264 45.66 191.004 46.02 189.924 46.74C188.844 47.42 188.024 48.36 187.464 49.56C186.904 50.76 186.624 52.1 186.624 53.58C186.624 55.1 186.904 56.48 187.464 57.72C188.024 58.96 188.844 59.94 189.924 60.66C191.004 61.34 192.264 61.68 193.704 61.68ZM225.901 69C223.061 69 220.841 68.2 219.241 66.6C217.641 64.96 216.841 62.76 216.841 60V30.72H226.201V59.46C226.201 59.94 226.361 60.36 226.681 60.72C227.041 61.04 227.461 61.2 227.941 61.2H234.661V69H225.901ZM211.801 45.84V38.22H234.661V45.84H211.801ZM252.969 69C249.489 69 246.429 68.36 243.789 67.08C241.149 65.76 239.089 63.96 237.609 61.68C236.169 59.36 235.449 56.68 235.449 53.64C235.449 50.28 236.149 47.4 237.549 45C238.949 42.6 240.809 40.76 243.129 39.48C245.489 38.16 248.089 37.5 250.929 37.5C254.169 37.5 256.869 38.18 259.029 39.54C261.229 40.9 262.889 42.76 264.009 45.12C265.129 47.44 265.689 50.1 265.689 53.1C265.689 53.62 265.649 54.24 265.569 54.96C265.529 55.64 265.469 56.18 265.389 56.58H245.229C245.469 57.62 245.929 58.5 246.609 59.22C247.289 59.94 248.149 60.48 249.189 60.84C250.229 61.16 251.389 61.32 252.669 61.32H262.089V69H252.969ZM244.989 50.76H256.689C256.609 50.12 256.489 49.5 256.329 48.9C256.169 48.3 255.909 47.78 255.549 47.34C255.229 46.86 254.849 46.46 254.409 46.14C253.969 45.78 253.449 45.5 252.849 45.3C252.289 45.1 251.649 45 250.929 45C250.009 45 249.189 45.16 248.469 45.48C247.749 45.8 247.149 46.24 246.669 46.8C246.189 47.32 245.809 47.94 245.529 48.66C245.289 49.34 245.109 50.04 244.989 50.76Z" fill="#858DE5"/>
<path d="M4.56 69V27H18C22.48 27 26.34 27.9 29.58 29.7C32.86 31.5 35.4 33.98 37.2 37.14C39 40.3 39.9 43.92 39.9 48C39.9 52.08 39 55.7 37.2 58.86C35.4 62.02 32.86 64.5 29.58 66.3C26.34 68.1 22.48 69 18 69H4.56ZM10.32 63.9H18.06C21.18 63.9 23.94 63.26 26.34 61.98C28.78 60.7 30.7 58.88 32.1 56.52C33.5 54.12 34.2 51.28 34.2 48C34.2 44.68 33.5 41.84 32.1 39.48C30.7 37.12 28.78 35.3 26.34 34.02C23.94 32.74 21.18 32.1 18.06 32.1H10.32V63.9ZM61.2019 69.72C58.0819 69.72 55.3219 69.02 52.9219 67.62C50.5219 66.18 48.6219 64.26 47.2219 61.86C45.8219 59.42 45.1219 56.7 45.1219 53.7C45.1219 50.7 45.8219 48 47.2219 45.6C48.6219 43.16 50.5219 41.24 52.9219 39.84C55.3219 38.4 58.0819 37.68 61.2019 37.68C64.3219 37.68 67.0819 38.4 69.4819 39.84C71.9219 41.24 73.8219 43.14 75.1819 45.54C76.5819 47.94 77.2819 50.66 77.2819 53.7C77.2819 56.7 76.5819 59.42 75.1819 61.86C73.8219 64.26 71.9219 66.18 69.4819 67.62C67.0819 69.02 64.3219 69.72 61.2019 69.72ZM61.2019 64.98C63.3219 64.98 65.1619 64.48 66.7219 63.48C68.2819 62.48 69.5019 61.14 70.3819 59.46C71.2619 57.74 71.7019 55.82 71.7019 53.7C71.7019 51.58 71.2619 49.68 70.3819 48C69.5019 46.28 68.2819 44.92 66.7219 43.92C65.1619 42.92 63.3219 42.42 61.2019 42.42C59.1219 42.42 57.2819 42.92 55.6819 43.92C54.1219 44.92 52.9019 46.28 52.0219 48C51.1419 49.68 50.7019 51.58 50.7019 53.7C50.7019 55.82 51.1419 57.74 52.0219 59.46C52.9019 61.14 54.1219 62.48 55.6819 63.48C57.2819 64.48 59.1219 64.98 61.2019 64.98ZM99.1805 69C96.0205 69 93.2005 68.32 90.7205 66.96C88.2405 65.6 86.2805 63.78 84.8405 61.5C83.4005 59.18 82.6805 56.58 82.6805 53.7C82.6805 50.82 83.4005 48.24 84.8405 45.96C86.2805 43.64 88.2405 41.8 90.7205 40.44C93.2005 39.08 96.0205 38.4 99.1805 38.4H102.78V43.14H99.0005C96.9605 43.14 95.1205 43.62 93.4805 44.58C91.8805 45.5 90.6005 46.76 89.6405 48.36C88.7205 49.96 88.2605 51.74 88.2605 53.7C88.2605 55.66 88.7205 57.44 89.6405 59.04C90.6005 60.64 91.8805 61.92 93.4805 62.88C95.1205 63.8 96.9605 64.26 99.0005 64.26H102.78V69H99.1805Z" fill="white"/>
<path d="M320.97 24.3844C323.616 24.3994 326.06 25.7808 327.439 28.0247L327.569 28.2442L337.303 45.3264C338.655 47.6994 338.638 50.614 337.259 52.9714L327.332 69.9425C325.996 72.2263 323.578 73.6518 320.945 73.7244L320.691 73.7269L301.029 73.6157C298.384 73.6005 295.94 72.2194 294.561 69.9759L294.431 69.756L284.697 52.6729C283.345 50.3 283.361 47.386 284.74 45.0287L294.667 28.0576C296.003 25.7739 298.421 24.3485 301.054 24.2757L301.309 24.2723L320.97 24.3844Z" stroke="#858DE5" stroke-width="5.09644"/>
<line x1="298" y1="40" x2="324" y2="40" stroke="#858DE5" stroke-width="4" stroke-linecap="round"/>
<line x1="298" y1="58" x2="324" y2="58" stroke="#858DE5" stroke-width="4" stroke-linecap="round"/>
<line x1="298" y1="49" x2="315" y2="49" stroke="#858DE5" stroke-width="4" stroke-linecap="round"/>
</svg>
